<svg width="20" height="21" viewBox="0 0 20 21" fill="none" xmlns="http://www.w3.org/2000/svg">
<path d="M19.6484 11.3522L15.7812 16.4254C15.5469 16.6465 15.2637 16.7571 14.9316 16.7571C14.5996 16.7571 14.3164 16.6433 14.082 16.4156C13.8477 16.188 13.7305 15.9083 13.7305 15.5766C13.7305 15.2449 13.8477 14.962 14.082 14.7278L17.3047 10.5132L14.082 6.29856C13.8477 6.06441 13.7305 5.78474 13.7305 5.45953C13.7305 5.13433 13.8477 4.85466 14.082 4.62051C14.3164 4.38636 14.5996 4.26929 14.9316 4.26929C15.2637 4.26929 15.5469 4.38636 15.7812 4.62051L19.6484 9.67417C19.8828 9.90831 20 10.188 20 10.5132C20 10.8384 19.8828 11.1181 19.6484 11.3522ZM10 19.2742C9.98698 19.3132 9.96745 19.388 9.94141 19.4986C9.91536 19.6091 9.89583 19.6839 9.88281 19.7229L9.81445 19.9278L9.7168 20.1327L9.57031 20.2888L9.36523 20.4254L9.10156 20.4937L8.75 20.5229C8.4375 20.5229 8.13802 20.3603 7.85156 20.0351C7.5651 19.7099 7.46094 19.3977 7.53906 19.0986L10 1.77173C10.2214 0.939209 10.8464 0.522949 11.875 0.522949C12.1615 0.522949 12.3535 0.675795 12.4512 0.981486C12.5488 1.28718 12.5521 1.60913 12.4609 1.94734L10 19.2742ZM5.91797 16.4156C5.68359 16.6433 5.40039 16.7571 5.06836 16.7571C4.73633 16.7571 4.45312 16.6465 4.21875 16.4254L0.351562 11.3522C0.117188 11.1181 0 10.8384 0 10.5132C0 10.188 0.117188 9.90831 0.351562 9.67417L4.21875 4.62051C4.45312 4.38636 4.73633 4.26929 5.06836 4.26929C5.40039 4.26929 5.68359 4.38636 5.91797 4.62051C6.15234 4.85466 6.26953 5.13433 6.26953 5.45953C6.26953 5.78474 6.15234 6.06441 5.91797 6.29856L2.69531 10.5132L5.91797 14.7278C6.15234 14.962 6.26953 15.2449 6.26953 15.5766C6.26953 15.9083 6.15234 16.188 5.91797 16.4156Z" fill="#272727"/>
</svg>
