<svg width="43" height="43" viewBox="0 0 43 43" fill="none" xmlns="http://www.w3.org/2000/svg">
<path d="M42.2441 23.2829L33.9297 34.1902C33.4258 34.6657 32.8169 34.9034 32.103 34.9034C31.3892 34.9034 30.7803 34.6587 30.2764 34.1693C29.7725 33.6798 29.5205 33.0785 29.5205 32.3654C29.5205 31.6522 29.7725 31.0439 30.2764 30.5405L37.2051 21.479L30.2764 12.4176C29.7725 11.9141 29.5205 11.3128 29.5205 10.6137C29.5205 9.91447 29.7725 9.31317 30.2764 8.80976C30.7803 8.30634 31.3892 8.05463 32.103 8.05463C32.8169 8.05463 33.4258 8.30634 33.9297 8.80976L42.2441 19.6751C42.748 20.1785 43 20.7798 43 21.479C43 22.1782 42.748 22.7795 42.2441 23.2829ZM21.5 40.3151C21.472 40.399 21.43 40.5598 21.374 40.7976C21.318 41.0353 21.276 41.1961 21.248 41.28L21.1011 41.7205L20.8911 42.161L20.5762 42.4966L20.1353 42.7902L19.5684 42.9371L18.8125 43C18.1406 43 17.4967 42.6504 16.8809 41.9512C16.265 41.252 16.041 40.5808 16.209 39.9376L21.5 2.68488C21.9759 0.894959 23.3197 0 25.5312 0C26.1471 0 26.5601 0.328618 26.77 0.985854C26.98 1.64309 26.987 2.33528 26.791 3.06244L21.5 40.3151ZM12.7236 34.1693C12.2197 34.6587 11.6108 34.9034 10.897 34.9034C10.1831 34.9034 9.57422 34.6657 9.07031 34.1902L0.755859 23.2829C0.251953 22.7795 0 22.1782 0 21.479C0 20.7798 0.251953 20.1785 0.755859 19.6751L9.07031 8.80976C9.57422 8.30634 10.1831 8.05463 10.897 8.05463C11.6108 8.05463 12.2197 8.30634 12.7236 8.80976C13.2275 9.31317 13.4795 9.91447 13.4795 10.6137C13.4795 11.3128 13.2275 11.9141 12.7236 12.4176L5.79492 21.479L12.7236 30.5405C13.2275 31.0439 13.4795 31.6522 13.4795 32.3654C13.4795 33.0785 13.2275 33.6798 12.7236 34.1693Z" fill="#272727"/>
</svg>