<svg width="20" height="13" viewBox="0 0 20 13" fill="none" xmlns="http://www.w3.org/2000/svg">
<path d="M12.9974 6.24869C12.9974 7.90374 11.653 9.24542 9.99457 9.24542C8.33617 9.24542 6.99177 7.90374 6.99177 6.24869C6.99177 4.59362 8.33617 3.25195 9.99457 3.25195C11.653 3.25193 12.9974 4.59363 12.9974 6.24869ZM10 0.0090332C8.28292 0.0169672 6.5031 0.452401 4.81827 1.28606C3.5673 1.93054 2.34817 2.83981 1.2899 3.96212C0.770133 4.53502 0.107183 5.36457 0 6.24966C0.0126667 7.01634 0.802167 7.96266 1.2899 8.53721C2.28228 9.61544 3.46967 10.4993 4.81827 11.2139C6.38945 12.0082 8.12853 12.4655 10 12.491C11.7187 12.4829 13.4981 12.0425 15.1811 11.2139C16.4321 10.5695 17.6518 9.65952 18.7101 8.53721C19.2299 7.96431 19.8928 7.13475 20 6.24966C19.9873 5.48298 19.1978 4.53662 18.7101 3.96209C17.7177 2.88386 16.5297 2.00065 15.1811 1.28603C13.6107 0.492349 11.8674 0.0381825 10 0.0090332ZM9.99873 1.55848C12.6007 1.55848 14.71 3.65907 14.71 6.25034C14.71 8.84159 12.6007 10.9422 9.99873 10.9422C7.39675 10.9422 5.28748 8.84157 5.28748 6.25034C5.28748 3.65907 7.39675 1.55848 9.99873 1.55848Z" fill="#7D7C83"/>
</svg>