<svg width="15" height="16" viewBox="0 0 15 16" fill="none" xmlns="http://www.w3.org/2000/svg">
<path fill-rule="evenodd" clip-rule="evenodd" d="M12.2748 3.31055C15.1364 6.27828 15.1456 10.9218 12.2981 13.6633C9.47676 16.3814 5.38049 16.4387 2.51671 13.541L1.42423 14.6334C1.27496 14.6316 1.13231 14.5715 1.02675 14.466C0.921184 14.3604 0.861075 14.2177 0.859254 14.0685L0.739046 11.3376C0.737818 11.2644 0.751336 11.1917 0.778796 11.1238C0.806257 11.0559 0.847097 10.9942 0.898888 10.9424C0.950679 10.8906 1.01236 10.8498 1.08026 10.8223C1.14816 10.7948 1.22089 10.7813 1.29412 10.7825L3.93941 10.9883C4.08885 10.9896 4.23179 11.0496 4.33746 11.1552C4.44313 11.2609 4.50308 11.4039 4.50439 11.5533L3.49888 12.5588C5.84294 14.9354 9.04472 14.9099 11.3555 12.684C13.6855 10.4417 13.6763 6.64385 11.3365 4.21494C9.03129 1.82209 5.31049 1.64673 2.97209 3.78855L2.00972 2.82618C4.86289 0.168165 9.44212 0.371812 12.2748 3.31055Z" fill="#F49E4C"/>
</svg>